<?xml version="1.0" encoding="UTF-8" standalone="no"?>
<!DOCTYPE svg PUBLIC "-//W3C//DTD SVG 1.1//EN"
 "http://www.w3.org/Graphics/SVG/1.1/DTD/svg11.dtd">
<!-- Generated by graphviz version 2.40.1 (20161225.0304)
 -->
<!-- Title: inheritancea78ee86029 Pages: 1 -->
<svg width="576pt" height="51pt"
 viewBox="0.00 0.00 576.00 50.51" xmlns="http://www.w3.org/2000/svg" xmlns:xlink="http://www.w3.org/1999/xlink">
<g id="graph0" class="graph" transform="scale(.8147 .8147) rotate(0) translate(4 58)">
<title>inheritancea78ee86029</title>
<!-- cimsparql.graphdb.GraphDBClient -->
<g id="node1" class="node">
<title>cimsparql.graphdb.GraphDBClient</title>
<g id="a_node1"><a xlink:href="../submodules/graphdb.html#cimsparql.graphdb.GraphDBClient" xlink:title="cimsparql.graphdb.GraphDBClient" target="_top">
<polygon fill="#63b8ff" stroke="#000000" points="699,-54 696,-58 675,-58 672,-54 438,-54 438,0 699,0 699,-54"/>
<text text-anchor="middle" x="568.5" y="-23.3" font-family="Vera Sans, DejaVu Sans, Liberation Sans, Arial, Helvetica, sans" font-size="14.00" fill="#000000">cimsparql.graphdb.GraphDBClient</text>
</a>
</g>
</g>
<!-- cimsparql.model.CimModel -->
<g id="node2" class="node">
<title>cimsparql.model.CimModel</title>
<g id="a_node2"><a xlink:href="../model.html#cimsparql.model.CimModel" xlink:title="Used to query with sparql queries (typically CIM)" target="_top">
<polygon fill="#63b8ff" stroke="#000000" points="402,-54 399,-58 378,-58 375,-54 191,-54 191,0 402,0 402,-54"/>
<text text-anchor="middle" x="296.5" y="-23.3" font-family="Vera Sans, DejaVu Sans, Liberation Sans, Arial, Helvetica, sans" font-size="14.00" fill="#000000">cimsparql.model.CimModel</text>
</a>
</g>
</g>
<!-- cimsparql.model.CimModel&#45;&gt;cimsparql.graphdb.GraphDBClient -->
<g id="edge1" class="edge">
<title>cimsparql.model.CimModel&#45;&gt;cimsparql.graphdb.GraphDBClient</title>
<path fill="none" stroke="#000000" stroke-width=".5" d="M402.0516,-27C412.0614,-27 422.3032,-27 432.5447,-27"/>
<polygon fill="#000000" stroke="#000000" stroke-width=".5" points="432.5713,-28.7501 437.5713,-27 432.5712,-25.2501 432.5713,-28.7501"/>
</g>
<!-- cimsparql.url.Prefix -->
<g id="node3" class="node">
<title>cimsparql.url.Prefix</title>
<g id="a_node3"><a xlink:href="../url.html#cimsparql.url.Prefix" xlink:title="cimsparql.url.Prefix" target="_top">
<polygon fill="#63b8ff" stroke="#000000" points="155,-54 152,-58 131,-58 128,-54 0,-54 0,0 155,0 155,-54"/>
<text text-anchor="middle" x="77.5" y="-23.3" font-family="Vera Sans, DejaVu Sans, Liberation Sans, Arial, Helvetica, sans" font-size="14.00" fill="#000000">cimsparql.url.Prefix</text>
</a>
</g>
</g>
<!-- cimsparql.url.Prefix&#45;&gt;cimsparql.model.CimModel -->
<g id="edge2" class="edge">
<title>cimsparql.url.Prefix&#45;&gt;cimsparql.model.CimModel</title>
<path fill="none" stroke="#000000" stroke-width=".5" d="M155.0194,-27C164.9592,-27 175.2844,-27 185.6259,-27"/>
<polygon fill="#000000" stroke="#000000" stroke-width=".5" points="185.7024,-28.7501 190.7024,-27 185.7023,-25.2501 185.7024,-28.7501"/>
</g>
</g>
</svg>
